
<svg width="276" height="56" viewBox="0 0 276 56" version="1.1" xmlns="http://www.w3.org/2000/svg" xmlns:xlink="http://www.w3.org/1999/xlink"><path fill="#FFF" d="M76 15.8h15.7v3.1h-6.1v18.3h-3.5V18.9H76zM92 21.6h3.4v1.9s2.7-1.7 5.3-2.2v3.4c-2.8.6-5.3 1.7-5.3 1.7v10.9H92V21.6zM116.2 21.6v15.6h-3.4v-1s-2.3 1.3-4.2 1.3c-4.5 0-5.4-2.3-5.4-7.8v-8.2h3.4v8.2c0 3.5.2 4.8 2.7 4.8 1.9 0 3.6-.8 3.6-.8V21.6h3.3zM132.3 34.3l.1 2.5s-3.6.7-6.3.7c-4.7 0-6.5-2.5-6.5-8 0-5.7 2.5-8.3 6.8-8.3 4.4 0 6.6 2.3 6.6 7.2l-.2 2.4H123c0 2.5 1 3.8 3.6 3.8 2.5 0 5.7-.3 5.7-.3zm-2.7-6.1c0-3.1-.9-4.2-3.2-4.2-2.3 0-3.3 1.2-3.4 4.2h6.6z"/><path fill="#1E85C7" d="M132 15.8h15.7v3.1h-6.1v18.3h-3.5V18.9H132zM148 21.6h3.4v1.9s2.7-1.7 5.3-2.2v3.4c-2.8.6-5.3 1.7-5.3 1.7v10.9H148V21.6zM172.4 29.3c0 5.2-1.6 8.3-7 8.3s-7-3.1-7-8.3c0-5.1 1.8-8.1 7-8.1 5.3 0 7 3 7 8.1zm-3.4 0c0-3.6-.8-5.2-3.5-5.2-2.8 0-3.5 1.6-3.5 5.2s.6 5.4 3.5 5.4 3.5-1.8 3.5-5.4zM175.8 21.6h3.4v1s2.2-1.3 4-1.3c4.1 0 6 2.3 6 8 0 6.4-2.2 8.3-7 8.3-1.3 0-2.8-.3-3-.3V44h-3.4V21.6zm3.4 3.5v9.2c.2 0 1.7.3 2.8.3 2.9 0 3.8-1.5 3.8-5.4 0-3.7-1.2-5-3.1-5-1.7.1-3.5.9-3.5.9zM192.6 37.2V15.1h3.4v7.3s2.3-1.2 4.3-1.2c4.3 0 5.4 2.5 5.4 7.6v8.4h-3.4v-8.3c0-3.1-.4-4.7-2.8-4.7-1.7 0-3.5.7-3.5.7v12.3h-3.4zM209.7 15.3h3.4v3.6h-3.4zM209.7 21.6h3.4v15.6h-3.4zM229.2 34.3l.1 2.5s-3.6.7-6.3.7c-4.7 0-6.5-2.5-6.5-8 0-5.7 2.5-8.3 6.8-8.3 4.4 0 6.6 2.3 6.6 7.2l-.2 2.4H220c0 2.5 1 3.8 3.6 3.8 2.3 0 5.6-.3 5.6-.3zm-2.7-6.1c0-3.1-.9-4.2-3.2-4.2-2.3 0-3.3 1.2-3.4 4.2h6.6zM244 24.8s-3.7-.5-5.6-.5c-1.9 0-2.7.4-2.7 1.7 0 1 .7 1.3 3.7 1.8 3.8.7 5.1 1.6 5.1 4.7 0 3.7-2.3 5-6.2 5-2.2 0-5.8-.7-5.8-.7l.1-2.8s3.8.5 5.4.5c2.3 0 3.1-.5 3.1-1.8 0-1.1-.5-1.4-3.6-1.9-3.4-.6-5.2-1.3-5.2-4.6 0-3.5 2.8-4.8 5.9-4.8 2.3 0 5.9.7 5.9.7l-.1 2.7z"/><path fill="#0167AC" d="M50.6 9.7c-10.2 0-18.5 8.3-18.5 18.5s8.3 18.5 18.5 18.5 18.5-8.3 18.5-18.5S60.8 9.7 50.6 9.7z"/><radialGradient id="a" cx="50.5799" cy="27.7306" r="18.043" gradientUnits="userSpaceOnUse"><stop offset="0" stop-color="#4ec6f2"/><stop offset=".3577" stop-color="#4bc4f0"/><stop offset=".5721" stop-color="#43bceb"/><stop offset=".7487" stop-color="#35aee3"/><stop offset=".9039" stop-color="#219bd6"/><stop offset="1" stop-color="#108bcc"/></radialGradient><circle cx="50.6" cy="28.1" r="18.2" fill="url(#a)" opacity=".5"/><linearGradient id="b" x1="50.6451" x2="50.6451" y1="41.1812" y2="11.1531" gradientUnits="userSpaceOnUse"><stop offset="0" stop-color="#f9f9fc" stop-opacity="0"/><stop offset=".0979445" stop-color="#eaf4fa" stop-opacity=".0979445"/><stop offset=".3062" stop-color="#d1ebf8" stop-opacity=".3062"/><stop offset=".5218" stop-color="#bee5f6" stop-opacity=".5218"/><stop offset=".7477" stop-color="#b4e1f4" stop-opacity=".7477"/><stop offset="1" stop-color="#b0e0f4"/></linearGradient><path fill="url(#b)" d="M50.6 11.2c-9.4 0-17 7.6-17 17s7.6 13.1 17 13.1 17-3.7 17-13.1-7.6-17-17-17z" opacity=".25"/><path fill="#FFF" d="M45.7 37.8V24.5H38v-3.3h8.9c1.5 0 2.6 1.2 2.6 2.6v14h-3.8z"/><path fill="#0167AC" d="M46.9 21.4c1.3 0 2.4 1.1 2.4 2.4v13.7h-3.4V24.2h-7.7v-2.8h8.7m0-.5h-9.2v3.8h7.7V38h4.4V23.8c0-1.6-1.3-2.9-2.9-2.9z"/><g><path fill="#FFF" d="M51.4 37.8v-14c0-1.5 1.2-2.6 2.6-2.6h9v3.3h-7.7v13.3h-3.9z"/><path fill="#0167AC" d="M62.8 21.4v2.8h-7.7v13.3h-3.4V23.8c0-1.3 1.1-2.4 2.4-2.4h8.7m.5-.5h-9.2c-1.6 0-2.9 1.3-2.9 2.9V38h4.4V24.7h7.7v-3.8z"/></g></svg>